<?xml version="1.0" encoding="UTF-8" standalone="no"?>
<!DOCTYPE svg PUBLIC "-//W3C//DTD SVG 1.1//EN"
 "http://www.w3.org/Graphics/SVG/1.1/DTD/svg11.dtd">
<!-- Generated by graphviz version 2.40.1 (20161225.0304)
 -->
<!-- Title: state transitions Pages: 1 -->
<svg width="792pt" height="516pt"
 viewBox="0.00 0.00 792.00 516.00" xmlns="http://www.w3.org/2000/svg" xmlns:xlink="http://www.w3.org/1999/xlink">
<g id="graph0" class="graph" transform="scale(1 1) rotate(0) translate(4 512)">
<title>state transitions</title>
<polygon fill="#ffffff" stroke="transparent" points="-4,4 -4,-512 788,-512 788,4 -4,4"/>
<g id="clust1" class="cluster state regular">
<title>cluster_Etat_boutons</title>
<path fill="none" stroke="#000000" stroke-width="2" d="M20,-8C20,-8 764,-8 764,-8 770,-8 776,-14 776,-20 776,-20 776,-488 776,-488 776,-494 770,-500 764,-500 764,-500 20,-500 20,-500 14,-500 8,-494 8,-488 8,-488 8,-20 8,-20 8,-14 14,-8 20,-8"/>
<text text-anchor="start" x="356.6486" y="-481.2" font-family="Helvetica,sans-Serif" font-size="12.00" fill="#000000">Etat_boutons</text>
</g>
<!-- Etat_boutons -->
<!-- S0 -->
<g id="node2" class="node state regular">
<title>S0</title>
<polygon fill="#ffffff" fill-opacity="0.003922" stroke="transparent" stroke-width="2" points="459,-462 403,-462 403,-426 459,-426 459,-462"/>
<text text-anchor="start" x="423.6632" y="-440.2" font-family="Helvetica,sans-Serif" font-size="12.00" fill="#000000">S0</text>
<path fill="none" stroke="#000000" stroke-width="2" d="M415.3333,-427C415.3333,-427 446.6667,-427 446.6667,-427 452.3333,-427 458,-432.6667 458,-438.3333 458,-438.3333 458,-449.6667 458,-449.6667 458,-455.3333 452.3333,-461 446.6667,-461 446.6667,-461 415.3333,-461 415.3333,-461 409.6667,-461 404,-455.3333 404,-449.6667 404,-449.6667 404,-438.3333 404,-438.3333 404,-432.6667 409.6667,-427 415.3333,-427"/>
</g>
<!-- S1 -->
<g id="node3" class="node state regular">
<title>S1</title>
<polygon fill="#ffffff" fill-opacity="0.003922" stroke="transparent" stroke-width="2" points="222,-380 166,-380 166,-344 222,-344 222,-380"/>
<text text-anchor="start" x="186.6632" y="-358.2" font-family="Helvetica,sans-Serif" font-size="12.00" fill="#000000">S1</text>
<path fill="none" stroke="#000000" stroke-width="2" d="M178.3333,-345C178.3333,-345 209.6667,-345 209.6667,-345 215.3333,-345 221,-350.6667 221,-356.3333 221,-356.3333 221,-367.6667 221,-367.6667 221,-373.3333 215.3333,-379 209.6667,-379 209.6667,-379 178.3333,-379 178.3333,-379 172.6667,-379 167,-373.3333 167,-367.6667 167,-367.6667 167,-356.3333 167,-356.3333 167,-350.6667 172.6667,-345 178.3333,-345"/>
</g>
<!-- S0&#45;&gt;S1 -->
<g id="edge1" class="edge transition">
<title>S0&#45;&gt;S1</title>
<path fill="none" stroke="#000000" d="M402.7816,-442.563C334.9339,-438.8203 167.0344,-427.7393 150.488,-409 142.9383,-400.4498 148.425,-391.2054 157.7131,-383.1961"/>
<polygon fill="#000000" stroke="#000000" points="159.9395,-385.9004 165.8004,-377.0743 155.7147,-380.3191 159.9395,-385.9004"/>
<text text-anchor="start" x="150" y="-400" font-family="Helvetica,sans-Serif" font-size="10.00" fill="#000000">bp_babord = &#39;1&#39; &#160;&#160;</text>
</g>
<!-- S2 -->
<g id="node4" class="node state regular">
<title>S2</title>
<polygon fill="#ffffff" fill-opacity="0.003922" stroke="transparent" stroke-width="2" points="574,-380 518,-380 518,-344 574,-344 574,-380"/>
<text text-anchor="start" x="538.6632" y="-358.2" font-family="Helvetica,sans-Serif" font-size="12.00" fill="#000000">S2</text>
<path fill="none" stroke="#000000" stroke-width="2" d="M530.3333,-345C530.3333,-345 561.6667,-345 561.6667,-345 567.3333,-345 573,-350.6667 573,-356.3333 573,-356.3333 573,-367.6667 573,-367.6667 573,-373.3333 567.3333,-379 561.6667,-379 561.6667,-379 530.3333,-379 530.3333,-379 524.6667,-379 519,-373.3333 519,-367.6667 519,-367.6667 519,-356.3333 519,-356.3333 519,-350.6667 524.6667,-345 530.3333,-345"/>
</g>
<!-- S0&#45;&gt;S2 -->
<g id="edge2" class="edge transition">
<title>S0&#45;&gt;S2</title>
<path fill="none" stroke="#000000" d="M456.5222,-425.8015C472.8997,-414.1237 494.3522,-398.8272 512.1461,-386.1393"/>
<polygon fill="#000000" stroke="#000000" points="514.439,-388.8031 520.5491,-380.1476 510.375,-383.1036 514.439,-388.8031"/>
<text text-anchor="start" x="496" y="-400" font-family="Helvetica,sans-Serif" font-size="10.00" fill="#000000">bp_tribord = &#39;1&#39; &#160;&#160;</text>
</g>
<!-- S3 -->
<g id="node5" class="node state regular">
<title>S3</title>
<polygon fill="#ffffff" fill-opacity="0.003922" stroke="transparent" stroke-width="2" points="407,-380 351,-380 351,-344 407,-344 407,-380"/>
<text text-anchor="start" x="371.6632" y="-358.2" font-family="Helvetica,sans-Serif" font-size="12.00" fill="#000000">S3</text>
<path fill="none" stroke="#000000" stroke-width="2" d="M363.3333,-345C363.3333,-345 394.6667,-345 394.6667,-345 400.3333,-345 406,-350.6667 406,-356.3333 406,-356.3333 406,-367.6667 406,-367.6667 406,-373.3333 400.3333,-379 394.6667,-379 394.6667,-379 363.3333,-379 363.3333,-379 357.6667,-379 352,-373.3333 352,-367.6667 352,-367.6667 352,-356.3333 352,-356.3333 352,-350.6667 357.6667,-345 363.3333,-345"/>
</g>
<!-- S0&#45;&gt;S3 -->
<g id="edge3" class="edge transition">
<title>S0&#45;&gt;S3</title>
<path fill="none" stroke="#000000" d="M408.4969,-425.9435C403.2725,-420.8997 398.1216,-415.1121 394.274,-409 390.6745,-403.282 387.8442,-396.6344 385.6504,-390.1702"/>
<polygon fill="#000000" stroke="#000000" points="388.9246,-388.9024 382.708,-380.3231 382.2176,-390.9066 388.9246,-388.9024"/>
<text text-anchor="start" x="394" y="-400" font-family="Helvetica,sans-Serif" font-size="10.00" fill="#000000">bp_stby = &#39;1&#39; &#160;&#160;</text>
</g>
<!-- S1&#45;&gt;S0 -->
<g id="edge4" class="edge transition">
<title>S1&#45;&gt;S0</title>
<path fill="none" stroke="#000000" d="M222.0232,-374.9837C244.3399,-385.0369 276.5298,-398.9042 305.488,-409 334.4001,-419.0797 367.8254,-428.2847 392.9093,-434.7223"/>
<polygon fill="#000000" stroke="#000000" points="392.2153,-438.157 402.7687,-437.2206 393.9348,-431.3715 392.2153,-438.157"/>
<text text-anchor="start" x="305" y="-400" font-family="Helvetica,sans-Serif" font-size="10.00" fill="#000000">bp_babord = &#39;0&#39; &#160;&#160;</text>
</g>
<!-- S2&#45;&gt;S0 -->
<g id="edge5" class="edge transition">
<title>S2&#45;&gt;S0</title>
<path fill="none" stroke="#000000" d="M568.9143,-380.4244C577.2444,-389.3383 583.0662,-400.0252 576,-409 562.9675,-425.5525 507.9303,-435.2026 469.5455,-440.0378"/>
<polygon fill="#000000" stroke="#000000" points="468.7222,-436.6113 459.2094,-441.2757 469.5546,-443.5617 468.7222,-436.6113"/>
<text text-anchor="start" x="579" y="-400" font-family="Helvetica,sans-Serif" font-size="10.00" fill="#000000">bp_tribord = &#39;0&#39; &#160;&#160;</text>
</g>
<!-- S4 -->
<g id="node6" class="node state regular">
<title>S4</title>
<polygon fill="#ffffff" fill-opacity="0.003922" stroke="transparent" stroke-width="2" points="424,-298 368,-298 368,-262 424,-262 424,-298"/>
<text text-anchor="start" x="388.6632" y="-276.2" font-family="Helvetica,sans-Serif" font-size="12.00" fill="#000000">S4</text>
<path fill="none" stroke="#000000" stroke-width="2" d="M380.3333,-263C380.3333,-263 411.6667,-263 411.6667,-263 417.3333,-263 423,-268.6667 423,-274.3333 423,-274.3333 423,-285.6667 423,-285.6667 423,-291.3333 417.3333,-297 411.6667,-297 411.6667,-297 380.3333,-297 380.3333,-297 374.6667,-297 369,-291.3333 369,-285.6667 369,-285.6667 369,-274.3333 369,-274.3333 369,-268.6667 374.6667,-263 380.3333,-263"/>
</g>
<!-- S3&#45;&gt;S4 -->
<g id="edge6" class="edge transition">
<title>S3&#45;&gt;S4</title>
<path fill="none" stroke="#000000" d="M382.7729,-343.8015C384.9518,-333.2915 387.7384,-319.8503 390.1915,-308.0177"/>
<polygon fill="#000000" stroke="#000000" points="393.6347,-308.6499 392.2377,-298.1476 386.7805,-307.2288 393.6347,-308.6499"/>
<text text-anchor="start" x="388" y="-318" font-family="Helvetica,sans-Serif" font-size="10.00" fill="#000000">bp_stby = &#39;0&#39; &#160;&#160;</text>
</g>
<!-- S5 -->
<g id="node7" class="node state regular">
<title>S5</title>
<polygon fill="#ffffff" fill-opacity="0.003922" stroke="transparent" stroke-width="2" points="760,-216 704,-216 704,-180 760,-180 760,-216"/>
<text text-anchor="start" x="724.6632" y="-194.2" font-family="Helvetica,sans-Serif" font-size="12.00" fill="#000000">S5</text>
<path fill="none" stroke="#000000" stroke-width="2" d="M716.3333,-181C716.3333,-181 747.6667,-181 747.6667,-181 753.3333,-181 759,-186.6667 759,-192.3333 759,-192.3333 759,-203.6667 759,-203.6667 759,-209.3333 753.3333,-215 747.6667,-215 747.6667,-215 716.3333,-215 716.3333,-215 710.6667,-215 705,-209.3333 705,-203.6667 705,-203.6667 705,-192.3333 705,-192.3333 705,-186.6667 710.6667,-181 716.3333,-181"/>
</g>
<!-- S4&#45;&gt;S5 -->
<g id="edge7" class="edge transition">
<title>S4&#45;&gt;S5</title>
<path fill="none" stroke="#000000" d="M424.3175,-278.4487C479.2192,-275.1949 598.1525,-266.8761 637,-254 659.13,-246.665 681.702,-233.6371 699.2883,-221.992"/>
<polygon fill="#000000" stroke="#000000" points="701.7011,-224.5838 708.0015,-216.0659 697.7644,-218.7956 701.7011,-224.5838"/>
<text text-anchor="start" x="680" y="-236" font-family="Helvetica,sans-Serif" font-size="10.00" fill="#000000">bp_stby = &#39;1&#39; &#160;&#160;</text>
</g>
<!-- S6 -->
<g id="node8" class="node state regular">
<title>S6</title>
<polygon fill="#ffffff" fill-opacity="0.003922" stroke="transparent" stroke-width="2" points="103,-216 47,-216 47,-180 103,-180 103,-216"/>
<text text-anchor="start" x="67.6632" y="-194.2" font-family="Helvetica,sans-Serif" font-size="12.00" fill="#000000">S6</text>
<path fill="none" stroke="#000000" stroke-width="2" d="M59.3333,-181C59.3333,-181 90.6667,-181 90.6667,-181 96.3333,-181 102,-186.6667 102,-192.3333 102,-192.3333 102,-203.6667 102,-203.6667 102,-209.3333 96.3333,-215 90.6667,-215 90.6667,-215 59.3333,-215 59.3333,-215 53.6667,-215 48,-209.3333 48,-203.6667 48,-203.6667 48,-192.3333 48,-192.3333 48,-186.6667 53.6667,-181 59.3333,-181"/>
</g>
<!-- S4&#45;&gt;S6 -->
<g id="edge8" class="edge transition">
<title>S4&#45;&gt;S6</title>
<path fill="none" stroke="#000000" d="M367.9224,-278.4471C296.7326,-274.2763 113.2909,-261.9852 91.869,-245 85.891,-240.2601 82.0296,-233.2252 79.536,-226.0332"/>
<polygon fill="#000000" stroke="#000000" points="82.9012,-225.0695 76.9131,-216.3292 76.1437,-226.8961 82.9012,-225.0695"/>
<text text-anchor="start" x="91" y="-236" font-family="Helvetica,sans-Serif" font-size="10.00" fill="#000000">bp_babord = &#39;0&#39; and bp_tribord = &#39;1&#39; &#160;&#160;</text>
</g>
<!-- S9 -->
<g id="node11" class="node state regular">
<title>S9</title>
<polygon fill="#ffffff" fill-opacity="0.003922" stroke="transparent" stroke-width="2" points="534,-216 478,-216 478,-180 534,-180 534,-216"/>
<text text-anchor="start" x="498.6632" y="-194.2" font-family="Helvetica,sans-Serif" font-size="12.00" fill="#000000">S9</text>
<path fill="none" stroke="#000000" stroke-width="2" d="M490.3333,-181C490.3333,-181 521.6667,-181 521.6667,-181 527.3333,-181 533,-186.6667 533,-192.3333 533,-192.3333 533,-203.6667 533,-203.6667 533,-209.3333 527.3333,-215 521.6667,-215 521.6667,-215 490.3333,-215 490.3333,-215 484.6667,-215 479,-209.3333 479,-203.6667 479,-203.6667 479,-192.3333 479,-192.3333 479,-186.6667 484.6667,-181 490.3333,-181"/>
</g>
<!-- S4&#45;&gt;S9 -->
<g id="edge9" class="edge transition">
<title>S4&#45;&gt;S9</title>
<path fill="none" stroke="#000000" d="M420.1685,-261.9038C431.8528,-253.1624 446.0835,-242.5264 458.869,-233 463.5811,-229.489 468.5613,-225.7842 473.4499,-222.1509"/>
<polygon fill="#000000" stroke="#000000" points="475.5867,-224.9237 481.5271,-216.1508 471.4125,-219.3045 475.5867,-224.9237"/>
<text text-anchor="start" x="458" y="-236" font-family="Helvetica,sans-Serif" font-size="10.00" fill="#000000">bp_babord = &#39;1&#39; and bp_tribord = &#39;0&#39; &#160;&#160;</text>
</g>
<!-- S5&#45;&gt;S0 -->
<g id="edge10" class="edge transition">
<title>S5&#45;&gt;S0</title>
<path fill="none" stroke="#000000" d="M744.6517,-216.4082C749.0519,-224.9448 752.3629,-235.3234 750,-245 739.2487,-289.0293 703,-290.177 703,-335.5 703,-403 703,-403 703,-403 703,-414.6877 543.8984,-432.4799 469.0598,-440.2026"/>
<polygon fill="#000000" stroke="#000000" points="468.6758,-436.7235 459.0843,-441.2237 469.3888,-443.6871 468.6758,-436.7235"/>
<text text-anchor="start" x="705" y="-318" font-family="Helvetica,sans-Serif" font-size="10.00" fill="#000000">bp_stby = &#39;0&#39; &#160;&#160;</text>
</g>
<!-- S7 -->
<g id="node9" class="node state regular">
<title>S7</title>
<polygon fill="#ffffff" fill-opacity="0.003922" stroke="transparent" stroke-width="2" points="92,-134 36,-134 36,-98 92,-98 92,-134"/>
<text text-anchor="start" x="56.6632" y="-112.2" font-family="Helvetica,sans-Serif" font-size="12.00" fill="#000000">S7</text>
<path fill="none" stroke="#000000" stroke-width="2" d="M48.3333,-99C48.3333,-99 79.6667,-99 79.6667,-99 85.3333,-99 91,-104.6667 91,-110.3333 91,-110.3333 91,-121.6667 91,-121.6667 91,-127.3333 85.3333,-133 79.6667,-133 79.6667,-133 48.3333,-133 48.3333,-133 42.6667,-133 37,-127.3333 37,-121.6667 37,-121.6667 37,-110.3333 37,-110.3333 37,-104.6667 42.6667,-99 48.3333,-99"/>
</g>
<!-- S6&#45;&gt;S7 -->
<g id="edge11" class="edge transition">
<title>S6&#45;&gt;S7</title>
<path fill="none" stroke="#000000" d="M62.4671,-179.8721C59.5175,-174.6562 56.7909,-168.8024 55.268,-163 53.7023,-157.0346 53.7814,-150.5721 54.6823,-144.4037"/>
<polygon fill="#000000" stroke="#000000" points="58.1441,-144.9531 56.829,-134.4403 51.3012,-143.4787 58.1441,-144.9531"/>
<text text-anchor="start" x="55" y="-154" font-family="Helvetica,sans-Serif" font-size="10.00" fill="#000000">Bp_Babord = &#39;0&#39; &#160;&#160;</text>
</g>
<!-- S8 -->
<g id="node10" class="node state regular">
<title>S8</title>
<polygon fill="#ffffff" fill-opacity="0.003922" stroke="transparent" stroke-width="2" points="238,-134 182,-134 182,-98 238,-98 238,-134"/>
<text text-anchor="start" x="202.6632" y="-112.2" font-family="Helvetica,sans-Serif" font-size="12.00" fill="#000000">S8</text>
<path fill="none" stroke="#000000" stroke-width="2" d="M194.3333,-99C194.3333,-99 225.6667,-99 225.6667,-99 231.3333,-99 237,-104.6667 237,-110.3333 237,-110.3333 237,-121.6667 237,-121.6667 237,-127.3333 231.3333,-133 225.6667,-133 225.6667,-133 194.3333,-133 194.3333,-133 188.6667,-133 183,-127.3333 183,-121.6667 183,-121.6667 183,-110.3333 183,-110.3333 183,-104.6667 188.6667,-99 194.3333,-99"/>
</g>
<!-- S6&#45;&gt;S8 -->
<g id="edge12" class="edge transition">
<title>S6&#45;&gt;S8</title>
<path fill="none" stroke="#000000" d="M103.0922,-182.2318C113.4907,-176.3034 125.3399,-169.4391 136,-163 148.2498,-155.6007 161.4844,-147.296 173.3278,-139.7493"/>
<polygon fill="#000000" stroke="#000000" points="175.5366,-142.4912 182.0739,-134.1536 171.7641,-136.5947 175.5366,-142.4912"/>
<text text-anchor="start" x="155" y="-154" font-family="Helvetica,sans-Serif" font-size="10.00" fill="#000000">bp_Babord = &#39;1&#39; &#160;&#160;</text>
</g>
<!-- S13 -->
<g id="node15" class="node state regular">
<title>S13</title>
<polygon fill="#ffffff" fill-opacity="0.003922" stroke="transparent" stroke-width="2" points="256,-52 200,-52 200,-16 256,-16 256,-52"/>
<text text-anchor="start" x="217.3278" y="-30.2" font-family="Helvetica,sans-Serif" font-size="12.00" fill="#000000">S13</text>
<path fill="none" stroke="#000000" stroke-width="2" d="M212.3333,-17C212.3333,-17 243.6667,-17 243.6667,-17 249.3333,-17 255,-22.6667 255,-28.3333 255,-28.3333 255,-39.6667 255,-39.6667 255,-45.3333 249.3333,-51 243.6667,-51 243.6667,-51 212.3333,-51 212.3333,-51 206.6667,-51 201,-45.3333 201,-39.6667 201,-39.6667 201,-28.3333 201,-28.3333 201,-22.6667 206.6667,-17 212.3333,-17"/>
</g>
<!-- S7&#45;&gt;S13 -->
<g id="edge13" class="edge transition">
<title>S7&#45;&gt;S13</title>
<path fill="none" stroke="#000000" d="M92.1926,-101.9037C119.3807,-88.3097 160.6983,-67.6509 190.6195,-52.6903"/>
<polygon fill="#000000" stroke="#000000" points="192.5223,-55.652 199.9013,-48.0493 189.3918,-49.391 192.5223,-55.652"/>
<text text-anchor="start" x="156" y="-72" font-family="Helvetica,sans-Serif" font-size="10.00" fill="#000000">fin_bip = &#39;1&#39; &#160;&#160;</text>
</g>
<!-- S8&#45;&gt;S4 -->
<g id="edge14" class="edge transition">
<title>S8&#45;&gt;S4</title>
<path fill="none" stroke="#000000" d="M238.2652,-125.8187C251.3306,-132.3284 264,-142.4039 264,-157 264,-239 264,-239 264,-239 264,-258.7703 318.6863,-270.076 357.6608,-275.6231"/>
<polygon fill="#000000" stroke="#000000" points="357.3047,-279.1066 367.6827,-276.9741 358.24,-272.1694 357.3047,-279.1066"/>
<text text-anchor="start" x="264" y="-195" font-family="Helvetica,sans-Serif" font-size="10.00" fill="#000000">fin_bip = &#39;1&#39; &#160;&#160;</text>
</g>
<!-- S10 -->
<g id="node12" class="node state regular">
<title>S10</title>
<polygon fill="#ffffff" fill-opacity="0.003922" stroke="transparent" stroke-width="2" points="620,-134 564,-134 564,-98 620,-98 620,-134"/>
<text text-anchor="start" x="581.3278" y="-112.2" font-family="Helvetica,sans-Serif" font-size="12.00" fill="#000000">S10</text>
<path fill="none" stroke="#000000" stroke-width="2" d="M576.3333,-99C576.3333,-99 607.6667,-99 607.6667,-99 613.3333,-99 619,-104.6667 619,-110.3333 619,-110.3333 619,-121.6667 619,-121.6667 619,-127.3333 613.3333,-133 607.6667,-133 607.6667,-133 576.3333,-133 576.3333,-133 570.6667,-133 565,-127.3333 565,-121.6667 565,-121.6667 565,-110.3333 565,-110.3333 565,-104.6667 570.6667,-99 576.3333,-99"/>
</g>
<!-- S9&#45;&gt;S10 -->
<g id="edge16" class="edge transition">
<title>S9&#45;&gt;S10</title>
<path fill="none" stroke="#000000" d="M528.6756,-179.9714C535.0648,-174.6608 541.9259,-168.7334 548,-163 555.0437,-156.3515 562.3604,-148.8186 568.9583,-141.7619"/>
<polygon fill="#000000" stroke="#000000" points="571.5818,-144.0798 575.7886,-134.3559 566.4361,-139.3341 571.5818,-144.0798"/>
<text text-anchor="start" x="559" y="-154" font-family="Helvetica,sans-Serif" font-size="10.00" fill="#000000">bp_tribord = &#39;0&#39; &#160;&#160;</text>
</g>
<!-- S11 -->
<g id="node13" class="node state regular">
<title>S11</title>
<polygon fill="#ffffff" fill-opacity="0.003922" stroke="transparent" stroke-width="2" points="461,-134 405,-134 405,-98 461,-98 461,-134"/>
<text text-anchor="start" x="422.3278" y="-112.2" font-family="Helvetica,sans-Serif" font-size="12.00" fill="#000000">S11</text>
<path fill="none" stroke="#000000" stroke-width="2" d="M417.3333,-99C417.3333,-99 448.6667,-99 448.6667,-99 454.3333,-99 460,-104.6667 460,-110.3333 460,-110.3333 460,-121.6667 460,-121.6667 460,-127.3333 454.3333,-133 448.6667,-133 448.6667,-133 417.3333,-133 417.3333,-133 411.6667,-133 406,-127.3333 406,-121.6667 406,-121.6667 406,-110.3333 406,-110.3333 406,-104.6667 411.6667,-99 417.3333,-99"/>
</g>
<!-- S9&#45;&gt;S11 -->
<g id="edge15" class="edge transition">
<title>S9&#45;&gt;S11</title>
<path fill="none" stroke="#000000" d="M487.9014,-179.7032C482.7733,-174.3884 477.2388,-168.5258 472.279,-163 466.2546,-156.2881 459.9108,-148.8648 454.1203,-141.9382"/>
<polygon fill="#000000" stroke="#000000" points="456.7058,-139.5728 447.6294,-134.1075 451.3165,-144.0401 456.7058,-139.5728"/>
<text text-anchor="start" x="472" y="-154" font-family="Helvetica,sans-Serif" font-size="10.00" fill="#000000">bp_tribord = &#39;1&#39; &#160;&#160;</text>
</g>
<!-- S12 -->
<g id="node14" class="node state regular">
<title>S12</title>
<polygon fill="#ffffff" fill-opacity="0.003922" stroke="transparent" stroke-width="2" points="671,-52 615,-52 615,-16 671,-16 671,-52"/>
<text text-anchor="start" x="632.3278" y="-30.2" font-family="Helvetica,sans-Serif" font-size="12.00" fill="#000000">S12</text>
<path fill="none" stroke="#000000" stroke-width="2" d="M627.3333,-17C627.3333,-17 658.6667,-17 658.6667,-17 664.3333,-17 670,-22.6667 670,-28.3333 670,-28.3333 670,-39.6667 670,-39.6667 670,-45.3333 664.3333,-51 658.6667,-51 658.6667,-51 627.3333,-51 627.3333,-51 621.6667,-51 616,-45.3333 616,-39.6667 616,-39.6667 616,-28.3333 616,-28.3333 616,-22.6667 621.6667,-17 627.3333,-17"/>
</g>
<!-- S10&#45;&gt;S12 -->
<g id="edge17" class="edge transition">
<title>S10&#45;&gt;S12</title>
<path fill="none" stroke="#000000" d="M603.3186,-97.8015C610.0534,-86.973 618.7234,-73.033 626.2405,-60.9466"/>
<polygon fill="#000000" stroke="#000000" points="629.4037,-62.4877 631.7131,-52.1476 623.4596,-58.7907 629.4037,-62.4877"/>
<text text-anchor="start" x="620" y="-72" font-family="Helvetica,sans-Serif" font-size="10.00" fill="#000000">fin_bip = &#39;1&#39; &#160;&#160;</text>
</g>
<!-- S11&#45;&gt;S4 -->
<g id="edge18" class="edge transition">
<title>S11&#45;&gt;S4</title>
<path fill="none" stroke="#000000" d="M424.4491,-134.0727C418.8504,-146.6716 411.8518,-164.0209 407.836,-180 401.8763,-203.7139 398.8958,-231.3649 397.418,-251.5727"/>
<polygon fill="#000000" stroke="#000000" points="393.9171,-251.474 396.7583,-261.6808 400.9022,-251.93 393.9171,-251.474"/>
<text text-anchor="start" x="407" y="-195" font-family="Helvetica,sans-Serif" font-size="10.00" fill="#000000">fin_bip = &#39;1&#39; &#160;&#160;</text>
</g>
<!-- S12&#45;&gt;S4 -->
<g id="edge19" class="edge transition">
<title>S12&#45;&gt;S4</title>
<path fill="none" stroke="#000000" d="M671.2147,-45.5196C682.5561,-52.1731 693,-61.8658 693,-75 693,-142.5 693,-142.5 693,-142.5 693,-196.9245 671.7779,-215.5651 626,-245 594.9768,-264.9477 491.1589,-274.247 434.2005,-277.9388"/>
<polygon fill="#000000" stroke="#000000" points="433.9021,-274.4505 424.1385,-278.5642 434.3364,-281.437 433.9021,-274.4505"/>
<text text-anchor="start" x="692" y="-154" font-family="Helvetica,sans-Serif" font-size="10.00" fill="#000000">bp_tribord = &#39;1&#39; &#160;&#160;</text>
</g>
<!-- S13&#45;&gt;S4 -->
<g id="edge20" class="edge transition">
<title>S13&#45;&gt;S4</title>
<path fill="none" stroke="#000000" d="M256.3299,-36.7799C279.6879,-40.8209 309,-50.7275 309,-75 309,-142.5 309,-142.5 309,-142.5 309,-148.8909 352.486,-214.9731 377.9694,-253.1494"/>
<polygon fill="#000000" stroke="#000000" points="375.2512,-255.381 383.7195,-261.7479 381.07,-251.4897 375.2512,-255.381"/>
<text text-anchor="start" x="319" y="-154" font-family="Helvetica,sans-Serif" font-size="10.00" fill="#000000">bp_babord = &#39;1&#39; &#160;&#160;</text>
</g>
</g>
</svg>
